<svg width="634" height="499" viewBox="0 0 634 499" fill="none" xmlns="http://www.w3.org/2000/svg">
<g filter="url(#filter0_d)">
<path d="M382.001 73C384.624 73 387.245 73.0588 389.866 73.1764C392.486 73.2941 395.102 73.4705 397.716 73.7057C400.328 73.9402 402.934 74.2342 405.533 74.5854C408.132 74.9375 410.722 75.3467 413.303 75.8147C415.884 76.2827 418.453 76.8079 421.01 77.391C423.567 77.9742 426.11 78.6145 428.638 79.3119C431.167 80.0085 433.677 80.7623 436.172 81.5724C438.666 82.3817 441.141 83.2473 443.596 84.1684C446.051 85.0895 448.484 86.0645 450.896 87.0941C453.307 88.1237 455.695 89.2072 458.057 90.3445C460.419 91.4818 462.755 92.6705 465.064 93.9121C467.373 95.1538 469.652 96.4468 471.903 97.7904C474.153 99.1348 476.372 100.528 478.56 101.972C480.747 103.416 482.901 104.907 485.022 106.447C487.142 107.987 489.227 109.574 491.275 111.208C493.324 112.841 495.335 114.519 497.309 116.243C499.282 117.967 501.215 119.734 503.109 121.545C505.002 123.355 506.854 125.207 508.663 127.1C510.473 128.994 512.24 130.926 513.963 132.899C515.685 134.872 517.363 136.882 518.995 138.93C520.627 140.978 522.213 143.061 523.751 145.18C525.289 147.299 526.779 149.452 528.22 151.637C529.661 153.823 531.053 156.04 532.394 158.288C533.736 160.536 535.025 162.813 536.264 165.119C537.502 167.425 538.688 169.758 539.822 172.117C540.956 174.476 542.035 176.86 543.06 179.267C544.087 181.675 545.058 184.105 545.974 186.556C546.891 189.007 547.752 191.478 548.556 193.968C549.361 196.457 550.11 198.964 550.802 201.487C551.493 204.01 552.128 206.547 552.706 209.1C553.283 211.651 553.803 214.215 554.265 216.79C554.727 219.365 555.131 221.949 555.476 224.542C555.822 227.136 556.108 229.735 556.337 232.341C556.565 234.947 556.734 237.557 556.845 240.17C556.955 242.784 557.007 245.399 556.999 248.015C556.992 250.631 556.925 253.246 556.801 255.858C556.675 258.472 556.492 261.08 556.249 263.685C556.006 266.289 555.704 268.888 555.344 271.479C554.984 274.07 554.566 276.652 554.09 279.225C553.613 281.798 553.079 284.358 552.488 286.907C551.895 289.455 551.247 291.989 550.541 294.508C549.835 297.027 549.072 299.53 548.253 302.015C547.434 304.5 546.56 306.966 545.63 309.413C544.699 311.859 543.714 314.283 542.675 316.684C541.635 319.087 540.542 321.463 539.396 323.816C538.249 326.169 537.05 328.495 535.799 330.794C534.547 333.094 533.245 335.363 531.891 337.604C530.537 339.845 529.133 342.054 527.68 344.232C526.226 346.409 524.724 348.553 523.175 350.664C521.625 352.774 520.028 354.848 518.384 356.888C516.74 358.926 515.051 360.927 513.317 362.89C511.584 364.853 509.806 366.776 507.986 368.659C506.165 370.543 504.303 372.384 502.399 374.184C500.495 375.983 498.552 377.74 496.569 379.452C494.587 381.165 492.566 382.833 490.509 384.455C488.45 386.077 486.356 387.651 484.228 389.18C482.099 390.708 479.936 392.187 477.741 393.619C475.545 395.05 473.318 396.431 471.06 397.763C468.802 399.094 466.515 400.374 464.2 401.603C461.884 402.831 459.542 404.008 457.173 405.132C454.804 406.256 452.411 407.325 449.994 408.342C447.577 409.359 445.139 410.32 442.678 411.227C440.218 412.134 437.739 412.986 435.24 413.782C432.741 414.578 430.225 415.317 427.693 416L404.847 331.763C407.38 331.08 409.878 330.285 412.34 329.377C414.801 328.469 417.217 327.454 419.587 326.33C421.957 325.206 424.272 323.977 426.531 322.645C428.79 321.313 430.985 319.883 433.115 318.354C435.246 316.824 437.302 315.203 439.286 313.49C441.271 311.776 443.173 309.977 444.994 308.093C446.816 306.209 448.548 304.246 450.193 302.207C451.837 300.167 453.387 298.058 454.841 295.879C456.295 293.701 457.648 291.461 458.9 289.161C460.152 286.86 461.298 284.509 462.338 282.106C463.377 279.703 464.307 277.257 465.127 274.772C465.946 272.285 466.652 269.767 467.244 267.217C467.836 264.668 468.312 262.096 468.672 259.504C469.033 256.911 469.275 254.308 469.401 251.693C469.526 249.079 469.534 246.464 469.423 243.849C469.313 241.234 469.084 238.63 468.739 236.034C468.393 233.44 467.932 230.866 467.353 228.313C466.775 225.76 466.083 223.238 465.279 220.747C464.473 218.256 463.557 215.806 462.531 213.397C461.504 210.988 460.372 208.63 459.132 206.323C457.893 204.016 456.553 201.769 455.111 199.582C453.669 197.395 452.131 195.277 450.498 193.229C448.865 191.179 447.144 189.208 445.333 187.314C443.521 185.419 441.629 183.61 439.655 181.885C437.681 180.161 435.633 178.528 433.511 176.987C431.39 175.447 429.203 174.004 426.951 172.659C424.7 171.315 422.392 170.074 420.028 168.936C417.665 167.799 415.255 166.769 412.798 165.848C410.341 164.927 407.849 164.118 405.319 163.42C402.79 162.723 400.233 162.14 397.652 161.672C395.069 161.204 392.471 160.852 389.857 160.617C387.243 160.382 384.624 160.264 382 160.264V73.0008L382.001 73Z" fill="#00C4CC"/>
</g>
<g filter="url(#filter1_d)">
<path d="M409 423.443C406.189 424.355 403.358 425.196 400.505 425.965C397.652 426.734 394.781 427.43 391.893 428.054C389.005 428.678 386.102 429.228 383.185 429.705C380.269 430.181 377.342 430.585 374.405 430.913C371.469 431.242 368.525 431.496 365.576 431.676C362.627 431.855 359.674 431.96 356.719 431.991C353.764 432.021 350.811 431.977 347.858 431.857C344.905 431.738 341.958 431.545 339.014 431.276C336.072 431.007 333.137 430.664 330.212 430.248C327.287 429.83 324.374 429.34 321.473 428.776C318.573 428.212 315.689 427.574 312.82 426.864C309.952 426.154 307.103 425.371 304.274 424.517C301.446 423.662 298.641 422.737 295.859 421.74C293.078 420.744 290.323 419.678 287.595 418.542C284.868 417.406 282.171 416.202 279.504 414.929C276.837 413.657 274.205 412.318 271.607 410.912C269.008 409.507 266.446 408.036 263.922 406.501C261.398 404.966 258.915 403.368 256.472 401.706C254.028 400.045 251.629 398.324 249.273 396.541C246.918 394.759 244.608 392.918 242.346 391.019C240.083 389.119 237.871 387.164 235.707 385.153C233.544 383.142 231.433 381.077 229.374 378.959C227.316 376.841 225.312 374.673 223.364 372.453C221.415 370.234 219.524 367.967 217.69 365.652C215.856 363.337 214.083 360.976 212.369 358.571C210.655 356.166 209.004 353.72 207.413 351.231C205.823 348.742 204.298 346.215 202.836 343.649C201.374 341.084 199.979 338.483 198.649 335.846C197.319 333.21 196.057 330.541 194.863 327.841C193.668 325.141 192.543 322.412 191.487 319.655C190.431 316.898 189.445 314.116 188.53 311.309C187.615 308.502 186.772 305.673 186 302.823L270.461 280C270.847 281.425 271.269 282.839 271.726 284.243C272.184 285.646 272.676 287.037 273.205 288.416C273.733 289.795 274.295 291.159 274.892 292.509C275.489 293.859 276.121 295.193 276.786 296.512C277.451 297.83 278.149 299.131 278.879 300.413C279.61 301.696 280.373 302.96 281.168 304.204C281.963 305.448 282.789 306.672 283.646 307.874C284.503 309.077 285.389 310.257 286.306 311.415C287.223 312.572 288.168 313.706 289.143 314.816C290.117 315.926 291.119 317.01 292.148 318.069C293.177 319.129 294.233 320.16 295.314 321.166C296.396 322.172 297.503 323.149 298.633 324.099C299.764 325.049 300.919 325.969 302.098 326.86C303.275 327.752 304.475 328.613 305.696 329.443C306.918 330.274 308.16 331.073 309.421 331.841C310.684 332.608 311.964 333.343 313.263 334.046C314.563 334.749 315.879 335.418 317.213 336.055C318.546 336.691 319.894 337.293 321.258 337.861C322.622 338.429 323.999 338.962 325.39 339.46C326.781 339.959 328.183 340.421 329.598 340.848C331.012 341.276 332.436 341.667 333.87 342.021C335.304 342.377 336.746 342.695 338.196 342.977C339.646 343.259 341.103 343.505 342.566 343.713C344.028 343.922 345.496 344.093 346.967 344.227C348.439 344.361 349.912 344.458 351.389 344.518C352.864 344.578 354.342 344.6 355.819 344.585C357.296 344.57 358.772 344.517 360.247 344.427C361.722 344.337 363.194 344.21 364.662 344.046C366.13 343.882 367.593 343.681 369.051 343.442C370.509 343.204 371.96 342.928 373.405 342.616C374.849 342.304 376.284 341.956 377.711 341.572C379.137 341.187 380.553 340.767 381.958 340.311L408.996 423.444L409 423.443Z" fill="#0098BC"/>
</g>
<g filter="url(#filter2_d)">
<path d="M158.52 303.998C157.478 300.797 156.53 297.568 155.676 294.313C154.822 291.056 154.063 287.778 153.4 284.478C152.737 281.178 152.17 277.862 151.7 274.529C151.23 271.195 150.857 267.852 150.582 264.497C150.307 261.143 150.129 257.782 150.049 254.418C149.969 251.053 149.988 247.688 150.104 244.325C150.22 240.96 150.434 237.603 150.746 234.251C151.058 230.9 151.467 227.56 151.972 224.232C152.479 220.904 153.081 217.594 153.78 214.302C154.479 211.009 155.273 207.738 156.162 204.492C157.051 201.245 158.034 198.027 159.111 194.837C160.187 191.648 161.356 188.492 162.616 185.37C163.877 182.248 165.227 179.166 166.667 176.122C168.106 173.078 169.634 170.079 171.248 167.124C172.862 164.169 174.562 161.263 176.345 158.407C178.129 155.551 179.994 152.748 181.941 150L253.001 200.155C251.052 202.906 249.27 205.76 247.654 208.717C246.038 211.674 244.599 214.715 243.338 217.84C242.077 220.964 241.001 224.151 240.111 227.401C239.221 230.651 238.523 233.941 238.016 237.272C237.509 240.602 237.198 243.951 237.081 247.318C236.965 250.685 237.045 254.047 237.321 257.405C237.596 260.763 238.066 264.092 238.729 267.396C239.393 270.698 240.247 273.952 241.29 277.156L158.519 304L158.52 303.998Z" fill="#006CA3"/>
</g>
<g filter="url(#filter3_d)">
<path d="M213 155.517C217.798 147.988 223.147 140.87 229.047 134.163C234.946 127.456 241.327 121.238 248.19 115.511C255.052 109.784 262.314 104.613 269.977 100.001C277.64 95.389 285.613 91.3886 293.895 88.0001L327.001 168.241C322.859 169.936 318.873 171.936 315.042 174.242C311.211 176.549 307.579 179.133 304.148 181.997C300.717 184.861 297.526 187.97 294.576 191.323C291.627 194.677 288.952 198.235 286.554 202L213 155.517V155.517Z" fill="#004281"/>
</g>
<g filter="url(#filter4_d)">
<path d="M290 44.511C301.579 39.074 313.61 34.9627 326.091 32.1779C338.573 29.3924 351.207 28 363.991 28L364.001 114.744C357.605 114.745 351.288 115.442 345.046 116.834C338.805 118.227 332.791 120.282 327.005 123L290 44.511Z" fill="#0F1957"/>
</g>
<path d="M586.755 156.645V153.525H578.475V151.077L586.347 139.845H589.827V150.861H592.035V153.525H589.827V156.645H586.755ZM581.763 150.861H586.947V143.229L581.763 150.861ZM600.474 156.933C599.242 156.933 598.178 156.717 597.282 156.285C596.402 155.853 595.706 155.261 595.194 154.509C594.698 153.741 594.41 152.877 594.33 151.917H597.33C597.474 152.605 597.826 153.181 598.386 153.645C598.946 154.093 599.642 154.317 600.474 154.317C601.37 154.317 602.098 153.989 602.658 153.333C603.234 152.677 603.522 151.861 603.522 150.885C603.522 149.877 603.234 149.077 602.658 148.485C602.098 147.893 601.386 147.597 600.522 147.597C599.802 147.597 599.178 147.773 598.65 148.125C598.122 148.477 597.746 148.917 597.522 149.445H594.57L596.01 139.845H605.322V142.533H598.314L597.546 146.421C597.898 146.037 598.378 145.725 598.986 145.485C599.594 145.229 600.274 145.101 601.026 145.101C602.226 145.101 603.226 145.373 604.026 145.917C604.826 146.445 605.434 147.149 605.85 148.029C606.266 148.893 606.474 149.837 606.474 150.861C606.474 152.029 606.218 153.069 605.706 153.981C605.21 154.893 604.506 155.613 603.594 156.141C602.698 156.669 601.658 156.933 600.474 156.933Z" fill="#0B315E"/>
<path d="M611.799 141C611.079 141 610.423 140.84 609.831 140.52C609.255 140.184 608.799 139.72 608.463 139.128C608.127 138.52 607.959 137.8 607.959 136.968C607.959 136.136 608.127 135.424 608.463 134.832C608.815 134.224 609.279 133.76 609.855 133.44C610.447 133.104 611.103 132.936 611.823 132.936C612.543 132.936 613.191 133.104 613.767 133.44C614.343 133.76 614.799 134.224 615.135 134.832C615.471 135.424 615.639 136.136 615.639 136.968C615.639 137.8 615.463 138.52 615.111 139.128C614.775 139.72 614.319 140.184 613.743 140.52C613.167 140.84 612.519 141 611.799 141ZM610.311 150L620.079 133.2H622.095L612.327 150H610.311ZM611.799 139.44C612.359 139.44 612.847 139.232 613.263 138.816C613.695 138.4 613.911 137.784 613.911 136.968C613.911 136.136 613.703 135.512 613.287 135.096C612.871 134.664 612.383 134.448 611.823 134.448C611.263 134.448 610.759 134.664 610.311 135.096C609.879 135.512 609.663 136.136 609.663 136.968C609.663 137.784 609.879 138.4 610.311 138.816C610.743 139.232 611.239 139.44 611.799 139.44ZM620.775 150.288C620.055 150.288 619.399 150.128 618.807 149.808C618.231 149.472 617.775 149.008 617.439 148.416C617.103 147.808 616.935 147.088 616.935 146.256C616.935 145.424 617.103 144.712 617.439 144.12C617.791 143.512 618.255 143.048 618.831 142.728C619.407 142.392 620.055 142.224 620.775 142.224C621.495 142.224 622.143 142.392 622.719 142.728C623.295 143.048 623.751 143.512 624.087 144.12C624.423 144.712 624.591 145.424 624.591 146.256C624.591 147.088 624.423 147.808 624.087 148.416C623.751 149.008 623.295 149.472 622.719 149.808C622.143 150.128 621.495 150.288 620.775 150.288ZM620.751 148.728C621.327 148.728 621.823 148.52 622.239 148.104C622.671 147.688 622.887 147.072 622.887 146.256C622.887 145.424 622.679 144.8 622.263 144.384C621.847 143.968 621.351 143.76 620.775 143.76C620.215 143.76 619.719 143.968 619.287 144.384C618.855 144.8 618.639 145.424 618.639 146.256C618.639 147.072 618.847 147.688 619.263 148.104C619.695 148.52 620.191 148.728 620.751 148.728Z" fill="#0B315E"/>
<rect x="557" y="142" width="14.3111" height="14.3111" fill="#00C4CC"/>
<path d="M571.736 160.96C572.024 160.96 572.248 161.056 572.408 161.248C572.568 161.424 572.648 161.664 572.648 161.968V177.112C572.648 177.416 572.56 177.664 572.384 177.856C572.224 178.032 571.992 178.12 571.688 178.12C571.384 178.12 571.12 177.984 570.896 177.712L560.936 164.392V177.112C560.936 177.416 560.848 177.664 560.672 177.856C560.512 178.032 560.288 178.12 560 178.12C559.712 178.12 559.488 178.032 559.328 177.856C559.168 177.664 559.088 177.416 559.088 177.112V161.968C559.088 161.664 559.168 161.424 559.328 161.248C559.504 161.056 559.744 160.96 560.048 160.96C560.368 160.96 560.64 161.096 560.864 161.368L570.8 174.688V161.968C570.8 161.664 570.88 161.424 571.04 161.248C571.216 161.056 571.448 160.96 571.736 160.96ZM577.526 178.12C577.238 178.12 576.998 178.04 576.806 177.88C576.63 177.704 576.542 177.464 576.542 177.16V167.032C576.542 166.728 576.63 166.496 576.806 166.336C576.998 166.16 577.238 166.072 577.526 166.072C577.814 166.072 578.046 166.16 578.222 166.336C578.398 166.496 578.486 166.728 578.486 167.032V177.16C578.486 177.48 578.398 177.72 578.222 177.88C578.046 178.04 577.814 178.12 577.526 178.12ZM577.526 163.552C577.142 163.552 576.83 163.44 576.59 163.216C576.35 162.992 576.23 162.696 576.23 162.328C576.23 161.976 576.35 161.688 576.59 161.464C576.83 161.24 577.142 161.128 577.526 161.128C577.91 161.128 578.222 161.24 578.462 161.464C578.702 161.688 578.822 161.976 578.822 162.328C578.822 162.696 578.702 162.992 578.462 163.216C578.222 163.44 577.91 163.552 577.526 163.552ZM591.6 166.072C591.904 166.072 592.144 166.16 592.32 166.336C592.496 166.512 592.584 166.744 592.584 167.032V177.208C592.584 178.952 592.136 180.264 591.24 181.144C590.344 182.04 589.016 182.488 587.256 182.488C585.544 182.488 584.12 182.152 582.984 181.48C582.408 181.16 582.12 180.792 582.12 180.376C582.12 180.152 582.176 179.968 582.288 179.824C582.416 179.68 582.576 179.608 582.768 179.608C582.928 179.608 583.216 179.72 583.632 179.944C584.192 180.232 584.744 180.464 585.288 180.64C585.832 180.816 586.48 180.904 587.232 180.904C588.368 180.904 589.224 180.6 589.8 179.992C590.376 179.4 590.664 178.528 590.664 177.376V175.312C590.328 176.064 589.808 176.64 589.104 177.04C588.416 177.44 587.6 177.64 586.656 177.64C585.632 177.64 584.72 177.4 583.92 176.92C583.136 176.44 582.52 175.76 582.072 174.88C581.64 174 581.424 172.984 581.424 171.832C581.424 170.68 581.64 169.664 582.072 168.784C582.52 167.904 583.136 167.224 583.92 166.744C584.72 166.264 585.632 166.024 586.656 166.024C587.584 166.024 588.392 166.224 589.08 166.624C589.768 167.024 590.288 167.592 590.64 168.328V167.032C590.64 166.744 590.72 166.512 590.88 166.336C591.056 166.16 591.296 166.072 591.6 166.072ZM587.04 176.032C588.16 176.032 589.04 175.664 589.68 174.928C590.32 174.176 590.64 173.144 590.64 171.832C590.64 170.536 590.32 169.52 589.68 168.784C589.056 168.032 588.176 167.656 587.04 167.656C585.904 167.656 585.008 168.032 584.352 168.784C583.712 169.52 583.392 170.536 583.392 171.832C583.392 173.144 583.712 174.176 584.352 174.928C585.008 175.664 585.904 176.032 587.04 176.032ZM605.23 175.288C605.406 175.288 605.558 175.36 605.686 175.504C605.814 175.648 605.878 175.832 605.878 176.056C605.878 176.456 605.598 176.824 605.038 177.16C604.462 177.496 603.854 177.752 603.214 177.928C602.574 178.088 601.95 178.168 601.342 178.168C599.534 178.168 598.102 177.632 597.046 176.56C596.006 175.488 595.486 174.008 595.486 172.12C595.486 170.92 595.718 169.864 596.182 168.952C596.646 168.024 597.294 167.304 598.126 166.792C598.974 166.28 599.934 166.024 601.006 166.024C602.526 166.024 603.734 166.52 604.63 167.512C605.526 168.504 605.974 169.848 605.974 171.544C605.974 171.864 605.91 172.096 605.782 172.24C605.654 172.384 605.446 172.456 605.158 172.456H597.43C597.574 175.208 598.878 176.584 601.342 176.584C601.966 176.584 602.502 176.504 602.95 176.344C603.398 176.168 603.878 175.936 604.39 175.648C604.806 175.408 605.086 175.288 605.23 175.288ZM601.03 167.536C600.006 167.536 599.182 167.856 598.558 168.496C597.95 169.136 597.59 170.04 597.478 171.208H604.27C604.238 170.024 603.942 169.12 603.382 168.496C602.822 167.856 602.038 167.536 601.03 167.536ZM614.623 166.072C615.295 166.024 615.631 166.296 615.631 166.888C615.631 167.144 615.559 167.352 615.415 167.512C615.271 167.656 615.023 167.744 614.671 167.776L613.951 167.848C612.879 167.944 612.079 168.328 611.551 169C611.039 169.656 610.783 170.432 610.783 171.328V177.16C610.783 177.48 610.695 177.72 610.519 177.88C610.343 178.04 610.111 178.12 609.823 178.12C609.535 178.12 609.295 178.04 609.103 177.88C608.927 177.704 608.839 177.464 608.839 177.16V167.032C608.839 166.728 608.935 166.496 609.127 166.336C609.319 166.16 609.551 166.072 609.823 166.072C610.079 166.072 610.295 166.16 610.471 166.336C610.647 166.496 610.735 166.72 610.735 167.008V168.352C611.071 167.648 611.543 167.112 612.151 166.744C612.775 166.376 613.487 166.16 614.287 166.096L614.623 166.072ZM618.284 178.12C617.996 178.12 617.756 178.04 617.564 177.88C617.388 177.704 617.3 177.464 617.3 177.16V167.032C617.3 166.728 617.388 166.496 617.564 166.336C617.756 166.16 617.996 166.072 618.284 166.072C618.572 166.072 618.804 166.16 618.98 166.336C619.156 166.496 619.244 166.728 619.244 167.032V177.16C619.244 177.48 619.156 177.72 618.98 177.88C618.804 178.04 618.572 178.12 618.284 178.12ZM618.284 163.552C617.9 163.552 617.588 163.44 617.348 163.216C617.108 162.992 616.988 162.696 616.988 162.328C616.988 161.976 617.108 161.688 617.348 161.464C617.588 161.24 617.9 161.128 618.284 161.128C618.668 161.128 618.98 161.24 619.22 161.464C619.46 161.688 619.58 161.976 619.58 162.328C619.58 162.696 619.46 162.992 619.22 163.216C618.98 163.44 618.668 163.552 618.284 163.552ZM627.654 166.024C630.582 166.024 632.046 167.56 632.046 170.632V177.16C632.046 177.448 631.958 177.68 631.782 177.856C631.622 178.032 631.398 178.12 631.11 178.12C630.822 178.12 630.59 178.032 630.414 177.856C630.238 177.68 630.15 177.448 630.15 177.16V176.008C629.846 176.696 629.382 177.232 628.758 177.616C628.134 177.984 627.414 178.168 626.598 178.168C625.846 178.168 625.15 178.016 624.51 177.712C623.886 177.408 623.39 176.984 623.022 176.44C622.654 175.896 622.47 175.296 622.47 174.64C622.47 173.76 622.694 173.08 623.142 172.6C623.59 172.104 624.326 171.752 625.35 171.544C626.374 171.32 627.798 171.208 629.622 171.208H630.15V170.416C630.15 169.456 629.95 168.752 629.55 168.304C629.166 167.856 628.534 167.632 627.654 167.632C626.566 167.632 625.462 167.928 624.342 168.52C623.91 168.792 623.606 168.928 623.43 168.928C623.238 168.928 623.078 168.856 622.95 168.712C622.822 168.568 622.758 168.384 622.758 168.16C622.758 167.936 622.822 167.744 622.95 167.584C623.094 167.408 623.318 167.232 623.622 167.056C624.182 166.736 624.814 166.488 625.518 166.312C626.238 166.12 626.95 166.024 627.654 166.024ZM626.862 176.632C627.822 176.632 628.606 176.312 629.214 175.672C629.838 175.016 630.15 174.176 630.15 173.152V172.456H629.718C628.31 172.456 627.238 172.52 626.502 172.648C625.766 172.76 625.238 172.96 624.918 173.248C624.614 173.52 624.462 173.928 624.462 174.472C624.462 175.096 624.686 175.616 625.134 176.032C625.598 176.432 626.174 176.632 626.862 176.632Z" fill="#717E97"/>
<path d="M255.669 471.644V469.412C256.693 468.564 257.685 467.724 258.645 466.892C259.621 466.06 260.485 465.236 261.237 464.42C262.005 463.604 262.613 462.812 263.061 462.044C263.525 461.26 263.757 460.5 263.757 459.764C263.757 459.076 263.565 458.468 263.181 457.94C262.813 457.412 262.197 457.148 261.333 457.148C260.453 457.148 259.789 457.436 259.341 458.012C258.893 458.588 258.669 459.284 258.669 460.1H255.693C255.725 458.868 255.997 457.844 256.509 457.028C257.021 456.196 257.701 455.58 258.549 455.18C259.397 454.764 260.349 454.556 261.405 454.556C263.117 454.556 264.445 455.028 265.389 455.972C266.349 456.9 266.829 458.108 266.829 459.596C266.829 460.524 266.613 461.428 266.181 462.308C265.765 463.188 265.213 464.036 264.525 464.852C263.837 465.668 263.093 466.436 262.293 467.156C261.493 467.86 260.717 468.516 259.965 469.124H267.237V471.644H255.669ZM275.812 471.932C274.58 471.932 273.516 471.716 272.62 471.284C271.74 470.852 271.044 470.26 270.532 469.508C270.036 468.74 269.748 467.876 269.668 466.916H272.668C272.812 467.604 273.164 468.18 273.724 468.644C274.284 469.092 274.98 469.316 275.812 469.316C276.708 469.316 277.436 468.988 277.996 468.332C278.572 467.676 278.86 466.86 278.86 465.884C278.86 464.876 278.572 464.076 277.996 463.484C277.436 462.892 276.724 462.596 275.86 462.596C275.14 462.596 274.516 462.772 273.988 463.124C273.46 463.476 273.084 463.916 272.86 464.444H269.908L271.348 454.844H280.66V457.532H273.652L272.884 461.42C273.236 461.036 273.716 460.724 274.324 460.484C274.932 460.228 275.612 460.1 276.364 460.1C277.564 460.1 278.564 460.372 279.364 460.916C280.164 461.444 280.772 462.148 281.188 463.028C281.604 463.892 281.812 464.836 281.812 465.86C281.812 467.028 281.556 468.068 281.044 468.98C280.548 469.892 279.844 470.612 278.932 471.14C278.036 471.668 276.996 471.932 275.812 471.932Z" fill="#0B315E"/>
<path d="M288.8 456C288.08 456 287.424 455.84 286.832 455.52C286.256 455.184 285.8 454.72 285.464 454.128C285.128 453.52 284.96 452.8 284.96 451.968C284.96 451.136 285.128 450.424 285.464 449.832C285.816 449.224 286.28 448.76 286.856 448.44C287.448 448.104 288.104 447.936 288.824 447.936C289.544 447.936 290.192 448.104 290.768 448.44C291.344 448.76 291.8 449.224 292.136 449.832C292.472 450.424 292.64 451.136 292.64 451.968C292.64 452.8 292.464 453.52 292.112 454.128C291.776 454.72 291.32 455.184 290.744 455.52C290.168 455.84 289.52 456 288.8 456ZM287.312 465L297.08 448.2H299.096L289.328 465H287.312ZM288.8 454.44C289.36 454.44 289.848 454.232 290.264 453.816C290.696 453.4 290.912 452.784 290.912 451.968C290.912 451.136 290.704 450.512 290.288 450.096C289.872 449.664 289.384 449.448 288.824 449.448C288.264 449.448 287.76 449.664 287.312 450.096C286.88 450.512 286.664 451.136 286.664 451.968C286.664 452.784 286.88 453.4 287.312 453.816C287.744 454.232 288.24 454.44 288.8 454.44ZM297.776 465.288C297.056 465.288 296.4 465.128 295.808 464.808C295.232 464.472 294.776 464.008 294.44 463.416C294.104 462.808 293.936 462.088 293.936 461.256C293.936 460.424 294.104 459.712 294.44 459.12C294.792 458.512 295.256 458.048 295.832 457.728C296.408 457.392 297.056 457.224 297.776 457.224C298.496 457.224 299.144 457.392 299.72 457.728C300.296 458.048 300.752 458.512 301.088 459.12C301.424 459.712 301.592 460.424 301.592 461.256C301.592 462.088 301.424 462.808 301.088 463.416C300.752 464.008 300.296 464.472 299.72 464.808C299.144 465.128 298.496 465.288 297.776 465.288ZM297.752 463.728C298.328 463.728 298.824 463.52 299.24 463.104C299.672 462.688 299.888 462.072 299.888 461.256C299.888 460.424 299.68 459.8 299.264 459.384C298.848 458.968 298.352 458.76 297.776 458.76C297.216 458.76 296.72 458.968 296.288 459.384C295.856 459.8 295.64 460.424 295.64 461.256C295.64 462.072 295.848 462.688 296.264 463.104C296.696 463.52 297.192 463.728 297.752 463.728Z" fill="#0B315E"/>
<rect x="234.001" y="456.999" width="14.3111" height="14.3111" fill="#0098BC"/>
<path d="M248.665 484.192C248.905 484.192 249.097 484.264 249.241 484.408C249.401 484.552 249.481 484.752 249.481 485.008V490.984C249.481 491.368 249.417 491.656 249.289 491.848C249.177 492.04 248.961 492.192 248.641 492.304C248.001 492.576 247.225 492.792 246.313 492.952C245.401 493.112 244.489 493.192 243.577 493.192C241.897 493.192 240.449 492.848 239.233 492.16C238.017 491.472 237.081 490.48 236.425 489.184C235.785 487.888 235.465 486.336 235.465 484.528C235.465 482.752 235.785 481.216 236.425 479.92C237.065 478.624 237.985 477.632 239.185 476.944C240.385 476.24 241.793 475.888 243.409 475.888C244.529 475.888 245.569 476.064 246.529 476.416C247.489 476.752 248.297 477.24 248.953 477.88C249.225 478.152 249.361 478.432 249.361 478.72C249.361 478.944 249.297 479.144 249.169 479.32C249.041 479.48 248.881 479.56 248.689 479.56C248.497 479.56 248.273 479.464 248.017 479.272C247.185 478.632 246.433 478.192 245.761 477.952C245.089 477.696 244.313 477.568 243.433 477.568C241.529 477.568 240.065 478.168 239.041 479.368C238.033 480.568 237.529 482.288 237.529 484.528C237.529 486.816 238.041 488.56 239.065 489.76C240.105 490.944 241.625 491.536 243.625 491.536C245.113 491.536 246.465 491.312 247.681 490.864V485.728H244.177C243.905 485.728 243.689 485.656 243.529 485.512C243.369 485.368 243.289 485.184 243.289 484.96C243.289 484.72 243.369 484.536 243.529 484.408C243.689 484.264 243.905 484.192 244.177 484.192H248.665ZM259.072 481.024C260.448 481.024 261.488 481.416 262.192 482.2C262.896 482.968 263.248 484.12 263.248 485.656V492.16C263.248 492.464 263.16 492.704 262.984 492.88C262.808 493.04 262.576 493.12 262.288 493.12C261.984 493.12 261.744 493.04 261.568 492.88C261.392 492.704 261.304 492.464 261.304 492.16V485.704C261.304 484.664 261.088 483.896 260.656 483.4C260.24 482.904 259.568 482.656 258.64 482.656C257.568 482.656 256.712 482.984 256.072 483.64C255.432 484.296 255.112 485.184 255.112 486.304V492.16C255.112 492.464 255.024 492.704 254.848 492.88C254.688 493.04 254.456 493.12 254.152 493.12C253.848 493.12 253.608 493.04 253.432 492.88C253.256 492.704 253.168 492.464 253.168 492.16V476.896C253.168 476.624 253.256 476.4 253.432 476.224C253.624 476.048 253.864 475.96 254.152 475.96C254.456 475.96 254.688 476.048 254.848 476.224C255.024 476.384 255.112 476.608 255.112 476.896V483.184C255.496 482.48 256.032 481.944 256.72 481.576C257.408 481.208 258.192 481.024 259.072 481.024ZM271.585 481.024C274.513 481.024 275.977 482.56 275.977 485.632V492.16C275.977 492.448 275.889 492.68 275.713 492.856C275.553 493.032 275.329 493.12 275.041 493.12C274.753 493.12 274.521 493.032 274.345 492.856C274.169 492.68 274.081 492.448 274.081 492.16V491.008C273.777 491.696 273.313 492.232 272.689 492.616C272.065 492.984 271.345 493.168 270.529 493.168C269.777 493.168 269.081 493.016 268.441 492.712C267.817 492.408 267.321 491.984 266.953 491.44C266.585 490.896 266.401 490.296 266.401 489.64C266.401 488.76 266.625 488.08 267.073 487.6C267.521 487.104 268.257 486.752 269.281 486.544C270.305 486.32 271.729 486.208 273.553 486.208H274.081V485.416C274.081 484.456 273.881 483.752 273.481 483.304C273.097 482.856 272.465 482.632 271.585 482.632C270.497 482.632 269.393 482.928 268.273 483.52C267.841 483.792 267.537 483.928 267.361 483.928C267.169 483.928 267.009 483.856 266.881 483.712C266.753 483.568 266.689 483.384 266.689 483.16C266.689 482.936 266.753 482.744 266.881 482.584C267.025 482.408 267.249 482.232 267.553 482.056C268.113 481.736 268.745 481.488 269.449 481.312C270.169 481.12 270.881 481.024 271.585 481.024ZM270.793 491.632C271.753 491.632 272.537 491.312 273.145 490.672C273.769 490.016 274.081 489.176 274.081 488.152V487.456H273.649C272.241 487.456 271.169 487.52 270.433 487.648C269.697 487.76 269.169 487.96 268.849 488.248C268.545 488.52 268.393 488.928 268.393 489.472C268.393 490.096 268.617 490.616 269.065 491.032C269.529 491.432 270.105 491.632 270.793 491.632ZM285.415 481.024C288.215 481.024 289.615 482.568 289.615 485.656V492.16C289.615 492.464 289.527 492.704 289.351 492.88C289.191 493.04 288.959 493.12 288.655 493.12C288.351 493.12 288.111 493.04 287.935 492.88C287.759 492.704 287.671 492.464 287.671 492.16V485.776C287.671 484.688 287.455 483.896 287.023 483.4C286.607 482.904 285.935 482.656 285.007 482.656C283.935 482.656 283.079 482.984 282.439 483.64C281.799 484.296 281.479 485.184 281.479 486.304V492.16C281.479 492.464 281.391 492.704 281.215 492.88C281.055 493.04 280.823 493.12 280.519 493.12C280.215 493.12 279.975 493.04 279.799 492.88C279.623 492.704 279.535 492.464 279.535 492.16V482.032C279.535 481.744 279.623 481.512 279.799 481.336C279.975 481.16 280.215 481.072 280.519 481.072C280.807 481.072 281.031 481.16 281.191 481.336C281.367 481.512 281.455 481.736 281.455 482.008V483.232C281.839 482.512 282.375 481.968 283.063 481.6C283.751 481.216 284.535 481.024 285.415 481.024ZM297.952 481.024C300.88 481.024 302.344 482.56 302.344 485.632V492.16C302.344 492.448 302.256 492.68 302.08 492.856C301.92 493.032 301.696 493.12 301.408 493.12C301.12 493.12 300.888 493.032 300.712 492.856C300.536 492.68 300.448 492.448 300.448 492.16V491.008C300.144 491.696 299.68 492.232 299.056 492.616C298.432 492.984 297.712 493.168 296.896 493.168C296.144 493.168 295.448 493.016 294.808 492.712C294.184 492.408 293.688 491.984 293.32 491.44C292.952 490.896 292.768 490.296 292.768 489.64C292.768 488.76 292.992 488.08 293.44 487.6C293.888 487.104 294.624 486.752 295.648 486.544C296.672 486.32 298.096 486.208 299.92 486.208H300.448V485.416C300.448 484.456 300.248 483.752 299.848 483.304C299.464 482.856 298.832 482.632 297.952 482.632C296.864 482.632 295.76 482.928 294.64 483.52C294.208 483.792 293.904 483.928 293.728 483.928C293.536 483.928 293.376 483.856 293.248 483.712C293.12 483.568 293.056 483.384 293.056 483.16C293.056 482.936 293.12 482.744 293.248 482.584C293.392 482.408 293.616 482.232 293.92 482.056C294.48 481.736 295.112 481.488 295.816 481.312C296.536 481.12 297.248 481.024 297.952 481.024ZM297.16 491.632C298.12 491.632 298.904 491.312 299.512 490.672C300.136 490.016 300.448 489.176 300.448 488.152V487.456H300.016C298.608 487.456 297.536 487.52 296.8 487.648C296.064 487.76 295.536 487.96 295.216 488.248C294.912 488.52 294.76 488.928 294.76 489.472C294.76 490.096 294.984 490.616 295.432 491.032C295.896 491.432 296.472 491.632 297.16 491.632Z" fill="#717E97"/>
<path d="M23.8998 230.645V217.349L21.1398 217.997V215.645L25.1958 213.845H27.0918V230.645H23.8998ZM38.0293 230.645V227.525H29.7493V225.077L37.6213 213.845H41.1013V224.861H43.3093V227.525H41.1013V230.645H38.0293ZM33.0373 224.861H38.2213V217.229L33.0373 224.861Z" fill="#0B315E"/>
<path d="M48.8 215C48.08 215 47.424 214.84 46.832 214.52C46.256 214.184 45.8 213.72 45.464 213.128C45.128 212.52 44.96 211.8 44.96 210.968C44.96 210.136 45.128 209.424 45.464 208.832C45.816 208.224 46.28 207.76 46.856 207.44C47.448 207.104 48.104 206.936 48.824 206.936C49.544 206.936 50.192 207.104 50.768 207.44C51.344 207.76 51.8 208.224 52.136 208.832C52.472 209.424 52.64 210.136 52.64 210.968C52.64 211.8 52.464 212.52 52.112 213.128C51.776 213.72 51.32 214.184 50.744 214.52C50.168 214.84 49.52 215 48.8 215ZM47.312 224L57.08 207.2H59.096L49.328 224H47.312ZM48.8 213.44C49.36 213.44 49.848 213.232 50.264 212.816C50.696 212.4 50.912 211.784 50.912 210.968C50.912 210.136 50.704 209.512 50.288 209.096C49.872 208.664 49.384 208.448 48.824 208.448C48.264 208.448 47.76 208.664 47.312 209.096C46.88 209.512 46.664 210.136 46.664 210.968C46.664 211.784 46.88 212.4 47.312 212.816C47.744 213.232 48.24 213.44 48.8 213.44ZM57.776 224.288C57.056 224.288 56.4 224.128 55.808 223.808C55.232 223.472 54.776 223.008 54.44 222.416C54.104 221.808 53.936 221.088 53.936 220.256C53.936 219.424 54.104 218.712 54.44 218.12C54.792 217.512 55.256 217.048 55.832 216.728C56.408 216.392 57.056 216.224 57.776 216.224C58.496 216.224 59.144 216.392 59.72 216.728C60.296 217.048 60.752 217.512 61.088 218.12C61.424 218.712 61.592 219.424 61.592 220.256C61.592 221.088 61.424 221.808 61.088 222.416C60.752 223.008 60.296 223.472 59.72 223.808C59.144 224.128 58.496 224.288 57.776 224.288ZM57.752 222.728C58.328 222.728 58.824 222.52 59.24 222.104C59.672 221.688 59.888 221.072 59.888 220.256C59.888 219.424 59.68 218.8 59.264 218.384C58.848 217.968 58.352 217.76 57.776 217.76C57.216 217.76 56.72 217.968 56.288 218.384C55.856 218.8 55.64 219.424 55.64 220.256C55.64 221.072 55.848 221.688 56.264 222.104C56.696 222.52 57.192 222.728 57.752 222.728Z" fill="#0B315E"/>
<rect y="216" width="14.3111" height="14.3111" fill="#006CA3"/>
<path d="M7.488 252.192C6.288 252.192 5.136 252.016 4.032 251.664C2.944 251.296 2.072 250.808 1.416 250.2C1.176 249.976 1.056 249.696 1.056 249.36C1.056 249.136 1.12 248.944 1.248 248.784C1.376 248.608 1.528 248.52 1.704 248.52C1.912 248.52 2.136 248.608 2.376 248.784C3.864 249.936 5.56 250.512 7.464 250.512C8.84 250.512 9.896 250.248 10.632 249.72C11.368 249.192 11.736 248.44 11.736 247.464C11.736 246.904 11.56 246.456 11.208 246.12C10.856 245.768 10.392 245.488 9.816 245.28C9.24 245.072 8.464 244.856 7.488 244.632C6.176 244.328 5.096 244.008 4.248 243.672C3.416 243.336 2.736 242.856 2.208 242.232C1.696 241.608 1.44 240.792 1.44 239.784C1.44 238.824 1.696 237.976 2.208 237.24C2.736 236.488 3.464 235.912 4.392 235.512C5.336 235.096 6.408 234.888 7.608 234.888C8.728 234.888 9.768 235.064 10.728 235.416C11.704 235.752 12.52 236.24 13.176 236.88C13.432 237.136 13.56 237.416 13.56 237.72C13.56 237.944 13.496 238.144 13.368 238.32C13.24 238.48 13.088 238.56 12.912 238.56C12.736 238.56 12.504 238.472 12.216 238.296C11.432 237.656 10.704 237.208 10.032 236.952C9.36 236.696 8.552 236.568 7.608 236.568C6.28 236.568 5.248 236.848 4.512 237.408C3.776 237.952 3.408 238.72 3.408 239.712C3.408 240.56 3.728 241.2 4.368 241.632C5.024 242.048 6.024 242.416 7.368 242.736C8.824 243.088 9.968 243.416 10.8 243.72C11.632 244.008 12.32 244.448 12.864 245.04C13.424 245.632 13.704 246.424 13.704 247.416C13.704 248.36 13.44 249.192 12.912 249.912C12.4 250.632 11.672 251.192 10.728 251.592C9.784 251.992 8.704 252.192 7.488 252.192ZM17.5965 252.12C17.3085 252.12 17.0685 252.04 16.8765 251.88C16.7005 251.704 16.6125 251.464 16.6125 251.16V241.032C16.6125 240.728 16.7005 240.496 16.8765 240.336C17.0685 240.16 17.3085 240.072 17.5965 240.072C17.8845 240.072 18.1165 240.16 18.2925 240.336C18.4685 240.496 18.5565 240.728 18.5565 241.032V251.16C18.5565 251.48 18.4685 251.72 18.2925 251.88C18.1165 252.04 17.8845 252.12 17.5965 252.12ZM17.5965 237.552C17.2125 237.552 16.9005 237.44 16.6605 237.216C16.4205 236.992 16.3005 236.696 16.3005 236.328C16.3005 235.976 16.4205 235.688 16.6605 235.464C16.9005 235.24 17.2125 235.128 17.5965 235.128C17.9805 235.128 18.2925 235.24 18.5325 235.464C18.7725 235.688 18.8925 235.976 18.8925 236.328C18.8925 236.696 18.7725 236.992 18.5325 237.216C18.2925 237.44 17.9805 237.552 17.5965 237.552ZM31.2386 249.288C31.4146 249.288 31.5666 249.36 31.6946 249.504C31.8226 249.648 31.8866 249.832 31.8866 250.056C31.8866 250.456 31.6066 250.824 31.0466 251.16C30.4706 251.496 29.8626 251.752 29.2226 251.928C28.5826 252.088 27.9586 252.168 27.3506 252.168C25.5426 252.168 24.1106 251.632 23.0546 250.56C22.0146 249.488 21.4946 248.008 21.4946 246.12C21.4946 244.92 21.7266 243.864 22.1906 242.952C22.6546 242.024 23.3026 241.304 24.1346 240.792C24.9826 240.28 25.9426 240.024 27.0146 240.024C28.5346 240.024 29.7426 240.52 30.6386 241.512C31.5346 242.504 31.9826 243.848 31.9826 245.544C31.9826 245.864 31.9186 246.096 31.7906 246.24C31.6626 246.384 31.4546 246.456 31.1666 246.456H23.4386C23.5826 249.208 24.8866 250.584 27.3506 250.584C27.9746 250.584 28.5106 250.504 28.9586 250.344C29.4066 250.168 29.8866 249.936 30.3986 249.648C30.8146 249.408 31.0946 249.288 31.2386 249.288ZM27.0386 241.536C26.0146 241.536 25.1906 241.856 24.5666 242.496C23.9586 243.136 23.5986 244.04 23.4866 245.208H30.2786C30.2466 244.024 29.9506 243.12 29.3906 242.496C28.8306 241.856 28.0466 241.536 27.0386 241.536ZM40.6309 240.072C41.3029 240.024 41.6389 240.296 41.6389 240.888C41.6389 241.144 41.5669 241.352 41.4229 241.512C41.2789 241.656 41.0309 241.744 40.6789 241.776L39.9589 241.848C38.8869 241.944 38.0869 242.328 37.5589 243C37.0469 243.656 36.7909 244.432 36.7909 245.328V251.16C36.7909 251.48 36.7029 251.72 36.5269 251.88C36.3509 252.04 36.1189 252.12 35.8309 252.12C35.5429 252.12 35.3029 252.04 35.1109 251.88C34.9349 251.704 34.8469 251.464 34.8469 251.16V241.032C34.8469 240.728 34.9429 240.496 35.1349 240.336C35.3269 240.16 35.5589 240.072 35.8309 240.072C36.0869 240.072 36.3029 240.16 36.4789 240.336C36.6549 240.496 36.7429 240.72 36.7429 241.008V242.352C37.0789 241.648 37.5509 241.112 38.1589 240.744C38.7829 240.376 39.4949 240.16 40.2949 240.096L40.6309 240.072ZM49.0918 240.072C49.7638 240.024 50.0998 240.296 50.0998 240.888C50.0998 241.144 50.0278 241.352 49.8838 241.512C49.7398 241.656 49.4918 241.744 49.1398 241.776L48.4198 241.848C47.3478 241.944 46.5478 242.328 46.0198 243C45.5078 243.656 45.2518 244.432 45.2518 245.328V251.16C45.2518 251.48 45.1638 251.72 44.9878 251.88C44.8118 252.04 44.5798 252.12 44.2918 252.12C44.0038 252.12 43.7638 252.04 43.5718 251.88C43.3958 251.704 43.3078 251.464 43.3078 251.16V241.032C43.3078 240.728 43.4038 240.496 43.5958 240.336C43.7878 240.16 44.0198 240.072 44.2918 240.072C44.5478 240.072 44.7638 240.16 44.9398 240.336C45.1158 240.496 45.2038 240.72 45.2038 241.008V242.352C45.5398 241.648 46.0118 241.112 46.6198 240.744C47.2438 240.376 47.9558 240.16 48.7558 240.096L49.0918 240.072ZM56.451 240.024C59.379 240.024 60.843 241.56 60.843 244.632V251.16C60.843 251.448 60.755 251.68 60.579 251.856C60.419 252.032 60.195 252.12 59.907 252.12C59.619 252.12 59.387 252.032 59.211 251.856C59.035 251.68 58.947 251.448 58.947 251.16V250.008C58.643 250.696 58.179 251.232 57.555 251.616C56.931 251.984 56.211 252.168 55.395 252.168C54.643 252.168 53.947 252.016 53.307 251.712C52.683 251.408 52.187 250.984 51.819 250.44C51.451 249.896 51.267 249.296 51.267 248.64C51.267 247.76 51.491 247.08 51.939 246.6C52.387 246.104 53.123 245.752 54.147 245.544C55.171 245.32 56.595 245.208 58.419 245.208H58.947V244.416C58.947 243.456 58.747 242.752 58.347 242.304C57.963 241.856 57.331 241.632 56.451 241.632C55.363 241.632 54.259 241.928 53.139 242.52C52.707 242.792 52.403 242.928 52.227 242.928C52.035 242.928 51.875 242.856 51.747 242.712C51.619 242.568 51.555 242.384 51.555 242.16C51.555 241.936 51.619 241.744 51.747 241.584C51.891 241.408 52.115 241.232 52.419 241.056C52.979 240.736 53.611 240.488 54.315 240.312C55.035 240.12 55.747 240.024 56.451 240.024ZM55.659 250.632C56.619 250.632 57.403 250.312 58.011 249.672C58.635 249.016 58.947 248.176 58.947 247.152V246.456H58.515C57.107 246.456 56.035 246.52 55.299 246.648C54.563 246.76 54.035 246.96 53.715 247.248C53.411 247.52 53.259 247.928 53.259 248.472C53.259 249.096 53.483 249.616 53.931 250.032C54.395 250.432 54.971 250.632 55.659 250.632ZM71.8371 252C71.5651 252 71.3331 251.92 71.1411 251.76C70.9651 251.584 70.8771 251.36 70.8771 251.088V235.968C70.8771 235.664 70.9651 235.424 71.1411 235.248C71.3171 235.056 71.5571 234.96 71.8611 234.96C72.1651 234.96 72.4051 235.056 72.5811 235.248C72.7571 235.424 72.8451 235.664 72.8451 235.968V250.32H80.5971C80.8851 250.32 81.1091 250.392 81.2691 250.536C81.4291 250.68 81.5091 250.888 81.5091 251.16C81.5091 251.432 81.4291 251.64 81.2691 251.784C81.1091 251.928 80.8851 252 80.5971 252H71.8371ZM92.5746 249.288C92.7506 249.288 92.9026 249.36 93.0306 249.504C93.1586 249.648 93.2226 249.832 93.2226 250.056C93.2226 250.456 92.9426 250.824 92.3826 251.16C91.8066 251.496 91.1986 251.752 90.5586 251.928C89.9186 252.088 89.2946 252.168 88.6866 252.168C86.8786 252.168 85.4466 251.632 84.3906 250.56C83.3506 249.488 82.8306 248.008 82.8306 246.12C82.8306 244.92 83.0626 243.864 83.5266 242.952C83.9906 242.024 84.6386 241.304 85.4706 240.792C86.3186 240.28 87.2786 240.024 88.3506 240.024C89.8706 240.024 91.0786 240.52 91.9746 241.512C92.8706 242.504 93.3186 243.848 93.3186 245.544C93.3186 245.864 93.2546 246.096 93.1266 246.24C92.9986 246.384 92.7906 246.456 92.5026 246.456H84.7746C84.9186 249.208 86.2226 250.584 88.6866 250.584C89.3106 250.584 89.8466 250.504 90.2946 250.344C90.7426 250.168 91.2226 249.936 91.7346 249.648C92.1506 249.408 92.4306 249.288 92.5746 249.288ZM88.3746 241.536C87.3506 241.536 86.5266 241.856 85.9026 242.496C85.2946 243.136 84.9346 244.04 84.8226 245.208H91.6146C91.5826 244.024 91.2866 243.12 90.7266 242.496C90.1666 241.856 89.3826 241.536 88.3746 241.536ZM101.031 252.168C99.9268 252.168 98.9508 251.92 98.1028 251.424C97.2708 250.928 96.6228 250.224 96.1588 249.312C95.7108 248.384 95.4868 247.312 95.4868 246.096C95.4868 244.88 95.7108 243.816 96.1588 242.904C96.6228 241.976 97.2708 241.264 98.1028 240.768C98.9508 240.272 99.9268 240.024 101.031 240.024C102.135 240.024 103.111 240.272 103.959 240.768C104.807 241.264 105.455 241.976 105.903 242.904C106.367 243.816 106.599 244.88 106.599 246.096C106.599 247.312 106.367 248.384 105.903 249.312C105.455 250.224 104.807 250.928 103.959 251.424C103.111 251.92 102.135 252.168 101.031 252.168ZM101.031 250.56C102.183 250.56 103.063 250.184 103.671 249.432C104.295 248.664 104.607 247.552 104.607 246.096C104.607 244.672 104.295 243.576 103.671 242.808C103.047 242.024 102.167 241.632 101.031 241.632C99.8948 241.632 99.0148 242.024 98.3908 242.808C97.7668 243.576 97.4548 244.672 97.4548 246.096C97.4548 247.536 97.7588 248.64 98.3668 249.408C98.9908 250.176 99.8788 250.56 101.031 250.56ZM115.375 240.024C118.175 240.024 119.575 241.568 119.575 244.656V251.16C119.575 251.464 119.487 251.704 119.311 251.88C119.151 252.04 118.919 252.12 118.615 252.12C118.311 252.12 118.071 252.04 117.895 251.88C117.719 251.704 117.631 251.464 117.631 251.16V244.776C117.631 243.688 117.415 242.896 116.983 242.4C116.567 241.904 115.895 241.656 114.967 241.656C113.895 241.656 113.039 241.984 112.399 242.64C111.759 243.296 111.439 244.184 111.439 245.304V251.16C111.439 251.464 111.351 251.704 111.175 251.88C111.015 252.04 110.783 252.12 110.479 252.12C110.175 252.12 109.935 252.04 109.759 251.88C109.583 251.704 109.495 251.464 109.495 251.16V241.032C109.495 240.744 109.583 240.512 109.759 240.336C109.935 240.16 110.175 240.072 110.479 240.072C110.767 240.072 110.991 240.16 111.151 240.336C111.327 240.512 111.415 240.736 111.415 241.008V242.232C111.799 241.512 112.335 240.968 113.023 240.6C113.711 240.216 114.495 240.024 115.375 240.024ZM132.184 249.288C132.36 249.288 132.512 249.36 132.64 249.504C132.768 249.648 132.832 249.832 132.832 250.056C132.832 250.456 132.552 250.824 131.992 251.16C131.416 251.496 130.808 251.752 130.168 251.928C129.528 252.088 128.904 252.168 128.296 252.168C126.488 252.168 125.056 251.632 124 250.56C122.96 249.488 122.44 248.008 122.44 246.12C122.44 244.92 122.672 243.864 123.136 242.952C123.6 242.024 124.248 241.304 125.08 240.792C125.928 240.28 126.888 240.024 127.96 240.024C129.48 240.024 130.688 240.52 131.584 241.512C132.48 242.504 132.928 243.848 132.928 245.544C132.928 245.864 132.864 246.096 132.736 246.24C132.608 246.384 132.4 246.456 132.112 246.456H124.384C124.528 249.208 125.832 250.584 128.296 250.584C128.92 250.584 129.456 250.504 129.904 250.344C130.352 250.168 130.832 249.936 131.344 249.648C131.76 249.408 132.04 249.288 132.184 249.288ZM127.984 241.536C126.96 241.536 126.136 241.856 125.512 242.496C124.904 243.136 124.544 244.04 124.432 245.208H131.224C131.192 244.024 130.896 243.12 130.336 242.496C129.776 241.856 128.992 241.536 127.984 241.536Z" fill="#717E97"/>
<path d="M190.963 73.9329C189.411 73.9329 188.083 73.5729 186.979 72.8529C185.875 72.1169 185.019 71.1009 184.411 69.8049C183.819 68.4929 183.523 66.9729 183.523 65.2449C183.523 63.5329 183.819 62.0209 184.411 60.7089C185.019 59.3969 185.875 58.3809 186.979 57.6609C188.083 56.9249 189.411 56.5569 190.963 56.5569C192.515 56.5569 193.843 56.9249 194.947 57.6609C196.051 58.3809 196.899 59.3969 197.491 60.7089C198.099 62.0209 198.403 63.5329 198.403 65.2449C198.403 66.9729 198.099 68.4929 197.491 69.8049C196.899 71.1009 196.051 72.1169 194.947 72.8529C193.843 73.5729 192.515 73.9329 190.963 73.9329ZM190.963 71.1729C192.227 71.1729 193.259 70.6449 194.059 69.5889C194.859 68.5329 195.259 67.0849 195.259 65.2449C195.259 63.4049 194.859 61.9569 194.059 60.9009C193.259 59.8449 192.227 59.3169 190.963 59.3169C189.683 59.3169 188.643 59.8449 187.843 60.9009C187.059 61.9569 186.667 63.4049 186.667 65.2449C186.667 67.0849 187.059 68.5329 187.843 69.5889C188.643 70.6449 189.683 71.1729 190.963 71.1729ZM206.85 73.9329C205.682 73.9329 204.698 73.7089 203.898 73.2609C203.098 72.7969 202.474 72.1969 202.026 71.4609C201.578 70.7249 201.314 69.9329 201.234 69.0849H204.09C204.218 69.8209 204.522 70.3889 205.002 70.7889C205.498 71.1889 206.122 71.3889 206.874 71.3889C207.946 71.3889 208.81 70.9009 209.466 69.9249C210.122 68.9329 210.474 67.4289 210.522 65.4129C210.138 66.0689 209.554 66.6129 208.77 67.0449C208.002 67.4769 207.154 67.6929 206.226 67.6929C205.298 67.6929 204.426 67.4689 203.61 67.0209C202.794 66.5729 202.13 65.9409 201.618 65.1249C201.106 64.3089 200.85 63.3489 200.85 62.2449C200.85 61.2369 201.098 60.3009 201.594 59.4369C202.09 58.5729 202.778 57.8769 203.658 57.3489C204.538 56.8209 205.57 56.5569 206.754 56.5569C208.018 56.5569 209.082 56.7889 209.946 57.2529C210.81 57.7169 211.498 58.3409 212.01 59.1249C212.538 59.9089 212.914 60.7809 213.138 61.7409C213.378 62.7009 213.498 63.6849 213.498 64.6929C213.498 66.5649 213.234 68.1969 212.706 69.5889C212.194 70.9649 211.434 72.0369 210.426 72.8049C209.434 73.5569 208.242 73.9329 206.85 73.9329ZM206.946 65.1009C207.538 65.1009 208.074 64.9729 208.554 64.7169C209.034 64.4449 209.41 64.0929 209.682 63.6609C209.954 63.2129 210.09 62.7169 210.09 62.1729C210.09 61.3089 209.786 60.5969 209.178 60.0369C208.586 59.4769 207.834 59.1969 206.922 59.1969C206.026 59.1969 205.282 59.4769 204.69 60.0369C204.098 60.5809 203.802 61.2769 203.802 62.1249C203.802 63.0209 204.098 63.7409 204.69 64.2849C205.282 64.8289 206.034 65.1009 206.946 65.1009Z" fill="#0B315E"/>
<path d="M219.799 58.0003C219.079 58.0003 218.423 57.8403 217.831 57.5203C217.255 57.1843 216.799 56.7203 216.463 56.1283C216.127 55.5203 215.959 54.8003 215.959 53.9683C215.959 53.1363 216.127 52.4243 216.463 51.8323C216.815 51.2243 217.279 50.7603 217.855 50.4403C218.447 50.1043 219.103 49.9363 219.823 49.9363C220.543 49.9363 221.191 50.1043 221.767 50.4403C222.343 50.7603 222.799 51.2243 223.135 51.8323C223.471 52.4243 223.639 53.1363 223.639 53.9683C223.639 54.8003 223.463 55.5203 223.111 56.1283C222.775 56.7203 222.319 57.1843 221.743 57.5203C221.167 57.8403 220.519 58.0003 219.799 58.0003ZM218.311 67.0003L228.079 50.2003H230.095L220.327 67.0003H218.311ZM219.799 56.4403C220.359 56.4403 220.847 56.2323 221.263 55.8163C221.695 55.4003 221.911 54.7843 221.911 53.9683C221.911 53.1363 221.703 52.5123 221.287 52.0963C220.871 51.6643 220.383 51.4483 219.823 51.4483C219.263 51.4483 218.759 51.6643 218.311 52.0963C217.879 52.5123 217.663 53.1363 217.663 53.9683C217.663 54.7843 217.879 55.4003 218.311 55.8163C218.743 56.2323 219.239 56.4403 219.799 56.4403ZM228.775 67.2883C228.055 67.2883 227.399 67.1283 226.807 66.8083C226.231 66.4723 225.775 66.0083 225.439 65.4163C225.103 64.8083 224.935 64.0883 224.935 63.2563C224.935 62.4243 225.103 61.7123 225.439 61.1203C225.791 60.5123 226.255 60.0483 226.831 59.7283C227.407 59.3923 228.055 59.2243 228.775 59.2243C229.495 59.2243 230.143 59.3923 230.719 59.7283C231.295 60.0483 231.751 60.5123 232.087 61.1203C232.423 61.7123 232.591 62.4243 232.591 63.2563C232.591 64.0883 232.423 64.8083 232.087 65.4163C231.751 66.0083 231.295 66.4723 230.719 66.8083C230.143 67.1283 229.495 67.2883 228.775 67.2883ZM228.751 65.7283C229.327 65.7283 229.823 65.5203 230.239 65.1043C230.671 64.6883 230.887 64.0723 230.887 63.2563C230.887 62.4243 230.679 61.8003 230.263 61.3843C229.847 60.9683 229.351 60.7603 228.775 60.7603C228.215 60.7603 227.719 60.9683 227.287 61.3843C226.855 61.8003 226.639 62.4243 226.639 63.2563C226.639 64.0723 226.847 64.6883 227.263 65.1043C227.695 65.5203 228.191 65.7283 228.751 65.7283Z" fill="#0B315E"/>
<rect x="161.999" y="59.0004" width="14.3111" height="14.3111" fill="#004281"/>
<path d="M165.047 95.0003C164.775 95.0003 164.543 94.9203 164.351 94.7603C164.175 94.5843 164.087 94.3603 164.087 94.0883V78.9683C164.087 78.6643 164.175 78.4243 164.351 78.2483C164.527 78.0563 164.767 77.9603 165.071 77.9603C165.375 77.9603 165.615 78.0563 165.791 78.2483C165.967 78.4243 166.055 78.6643 166.055 78.9683V93.3203H173.807C174.095 93.3203 174.319 93.3923 174.479 93.5363C174.639 93.6803 174.719 93.8883 174.719 94.1603C174.719 94.4323 174.639 94.6403 174.479 94.7843C174.319 94.9283 174.095 95.0003 173.807 95.0003H165.047ZM177.744 95.1203C177.456 95.1203 177.216 95.0403 177.024 94.8803C176.848 94.7043 176.76 94.4643 176.76 94.1603V84.0323C176.76 83.7283 176.848 83.4963 177.024 83.3363C177.216 83.1603 177.456 83.0723 177.744 83.0723C178.032 83.0723 178.264 83.1603 178.44 83.3363C178.616 83.4963 178.704 83.7283 178.704 84.0323V94.1603C178.704 94.4803 178.616 94.7203 178.44 94.8803C178.264 95.0403 178.032 95.1203 177.744 95.1203ZM177.744 80.5523C177.36 80.5523 177.048 80.4403 176.808 80.2163C176.568 79.9923 176.448 79.6963 176.448 79.3283C176.448 78.9763 176.568 78.6883 176.808 78.4643C177.048 78.2403 177.36 78.1283 177.744 78.1283C178.128 78.1283 178.44 78.2403 178.68 78.4643C178.92 78.6883 179.04 78.9763 179.04 79.3283C179.04 79.6963 178.92 79.9923 178.68 80.2163C178.44 80.4403 178.128 80.5523 177.744 80.5523ZM188.218 83.0243C189.242 83.0243 190.146 83.2723 190.93 83.7683C191.714 84.2643 192.322 84.9683 192.754 85.8803C193.186 86.7923 193.402 87.8483 193.402 89.0483C193.402 90.2643 193.186 91.3363 192.754 92.2643C192.322 93.1763 191.714 93.8883 190.93 94.4003C190.146 94.9123 189.242 95.1683 188.218 95.1683C187.306 95.1683 186.506 94.9683 185.818 94.5683C185.146 94.1683 184.634 93.6003 184.282 92.8643V94.1603C184.282 94.4483 184.194 94.6803 184.018 94.8563C183.858 95.0323 183.626 95.1203 183.322 95.1203C183.018 95.1203 182.778 95.0323 182.602 94.8563C182.426 94.6803 182.338 94.4483 182.338 94.1603V78.8963C182.338 78.6243 182.426 78.4003 182.602 78.2243C182.778 78.0483 183.018 77.9603 183.322 77.9603C183.626 77.9603 183.858 78.0483 184.018 78.2243C184.194 78.3843 184.282 78.6083 184.282 78.8963V85.3283C184.634 84.5923 185.146 84.0243 185.818 83.6243C186.506 83.2243 187.306 83.0243 188.218 83.0243ZM187.834 93.5603C188.97 93.5603 189.85 93.1683 190.474 92.3843C191.098 91.5843 191.41 90.4723 191.41 89.0483C191.41 87.6563 191.098 86.5763 190.474 85.8083C189.85 85.0403 188.97 84.6563 187.834 84.6563C186.698 84.6563 185.818 85.0403 185.194 85.8083C184.586 86.5763 184.282 87.6723 184.282 89.0963C184.282 90.5203 184.586 91.6243 185.194 92.4083C185.818 93.1763 186.698 93.5603 187.834 93.5603ZM205.355 92.2883C205.531 92.2883 205.683 92.3603 205.811 92.5043C205.939 92.6483 206.003 92.8323 206.003 93.0563C206.003 93.4563 205.723 93.8243 205.163 94.1603C204.587 94.4963 203.979 94.7523 203.339 94.9283C202.699 95.0883 202.075 95.1683 201.467 95.1683C199.659 95.1683 198.227 94.6323 197.171 93.5603C196.131 92.4883 195.611 91.0083 195.611 89.1203C195.611 87.9203 195.843 86.8643 196.307 85.9523C196.771 85.0243 197.419 84.3043 198.251 83.7923C199.099 83.2803 200.059 83.0243 201.131 83.0243C202.651 83.0243 203.859 83.5203 204.755 84.5123C205.651 85.5043 206.099 86.8483 206.099 88.5443C206.099 88.8643 206.035 89.0963 205.907 89.2403C205.779 89.3843 205.571 89.4563 205.283 89.4563H197.555C197.699 92.2083 199.003 93.5843 201.467 93.5843C202.091 93.5843 202.627 93.5043 203.075 93.3443C203.523 93.1683 204.003 92.9363 204.515 92.6483C204.931 92.4083 205.211 92.2883 205.355 92.2883ZM201.155 84.5363C200.131 84.5363 199.307 84.8563 198.683 85.4963C198.075 86.1363 197.715 87.0403 197.603 88.2083H204.395C204.363 87.0243 204.067 86.1203 203.507 85.4963C202.947 84.8563 202.163 84.5363 201.155 84.5363ZM214.747 83.0723C215.419 83.0243 215.755 83.2963 215.755 83.8883C215.755 84.1443 215.683 84.3523 215.539 84.5123C215.395 84.6563 215.147 84.7443 214.795 84.7763L214.075 84.8483C213.003 84.9443 212.203 85.3283 211.675 86.0003C211.163 86.6563 210.907 87.4323 210.907 88.3283V94.1603C210.907 94.4803 210.819 94.7203 210.643 94.8803C210.467 95.0403 210.235 95.1203 209.947 95.1203C209.659 95.1203 209.419 95.0403 209.227 94.8803C209.051 94.7043 208.963 94.4643 208.963 94.1603V84.0323C208.963 83.7283 209.059 83.4963 209.251 83.3363C209.443 83.1603 209.675 83.0723 209.947 83.0723C210.203 83.0723 210.419 83.1603 210.595 83.3363C210.771 83.4963 210.859 83.7203 210.859 84.0083V85.3523C211.195 84.6483 211.667 84.1123 212.275 83.7443C212.899 83.3763 213.611 83.1603 214.411 83.0963L214.747 83.0723ZM218.408 95.1203C218.12 95.1203 217.88 95.0403 217.688 94.8803C217.512 94.7043 217.424 94.4643 217.424 94.1603V84.0323C217.424 83.7283 217.512 83.4963 217.688 83.3363C217.88 83.1603 218.12 83.0723 218.408 83.0723C218.696 83.0723 218.928 83.1603 219.104 83.3363C219.28 83.4963 219.368 83.7283 219.368 84.0323V94.1603C219.368 94.4803 219.28 94.7203 219.104 94.8803C218.928 95.0403 218.696 95.1203 218.408 95.1203ZM218.408 80.5523C218.024 80.5523 217.712 80.4403 217.472 80.2163C217.232 79.9923 217.112 79.6963 217.112 79.3283C217.112 78.9763 217.232 78.6883 217.472 78.4643C217.712 78.2403 218.024 78.1283 218.408 78.1283C218.792 78.1283 219.104 78.2403 219.344 78.4643C219.584 78.6883 219.704 78.9763 219.704 79.3283C219.704 79.6963 219.584 79.9923 219.344 80.2163C219.104 80.4403 218.792 80.5523 218.408 80.5523ZM227.778 83.0243C230.706 83.0243 232.17 84.5603 232.17 87.6323V94.1603C232.17 94.4483 232.082 94.6803 231.906 94.8563C231.746 95.0323 231.522 95.1203 231.234 95.1203C230.946 95.1203 230.714 95.0323 230.538 94.8563C230.362 94.6803 230.274 94.4483 230.274 94.1603V93.0083C229.97 93.6963 229.506 94.2323 228.882 94.6163C228.258 94.9843 227.538 95.1683 226.722 95.1683C225.97 95.1683 225.274 95.0163 224.634 94.7123C224.01 94.4083 223.514 93.9843 223.146 93.4403C222.778 92.8963 222.594 92.2963 222.594 91.6403C222.594 90.7603 222.818 90.0803 223.266 89.6003C223.714 89.1043 224.45 88.7523 225.474 88.5443C226.498 88.3203 227.922 88.2083 229.746 88.2083H230.274V87.4163C230.274 86.4563 230.074 85.7523 229.674 85.3043C229.29 84.8563 228.658 84.6323 227.778 84.6323C226.69 84.6323 225.586 84.9283 224.466 85.5203C224.034 85.7923 223.73 85.9283 223.554 85.9283C223.362 85.9283 223.202 85.8563 223.074 85.7123C222.946 85.5683 222.882 85.3843 222.882 85.1603C222.882 84.9363 222.946 84.7443 223.074 84.5843C223.218 84.4083 223.442 84.2323 223.746 84.0563C224.306 83.7363 224.938 83.4883 225.642 83.3123C226.362 83.1203 227.074 83.0243 227.778 83.0243ZM226.986 93.6323C227.946 93.6323 228.73 93.3123 229.338 92.6723C229.962 92.0163 230.274 91.1763 230.274 90.1523V89.4563H229.842C228.434 89.4563 227.362 89.5203 226.626 89.6483C225.89 89.7603 225.362 89.9603 225.042 90.2483C224.738 90.5203 224.586 90.9283 224.586 91.4723C224.586 92.0963 224.81 92.6163 225.258 93.0323C225.722 93.4323 226.298 93.6323 226.986 93.6323Z" fill="#717E97"/>
<path d="M410.964 28.9326C409.412 28.9326 408.084 28.5726 406.98 27.8526C405.876 27.1166 405.02 26.1006 404.412 24.8046C403.82 23.4926 403.524 21.9726 403.524 20.2446C403.524 18.5326 403.82 17.0206 404.412 15.7086C405.02 14.3966 405.876 13.3806 406.98 12.6606C408.084 11.9246 409.412 11.5566 410.964 11.5566C412.516 11.5566 413.844 11.9246 414.948 12.6606C416.052 13.3806 416.9 14.3966 417.492 15.7086C418.1 17.0206 418.404 18.5326 418.404 20.2446C418.404 21.9726 418.1 23.4926 417.492 24.8046C416.9 26.1006 416.052 27.1166 414.948 27.8526C413.844 28.5726 412.516 28.9326 410.964 28.9326ZM410.964 26.1726C412.228 26.1726 413.26 25.6446 414.06 24.5886C414.86 23.5326 415.26 22.0846 415.26 20.2446C415.26 18.4046 414.86 16.9566 414.06 15.9006C413.26 14.8446 412.228 14.3166 410.964 14.3166C409.684 14.3166 408.644 14.8446 407.844 15.9006C407.06 16.9566 406.668 18.4046 406.668 20.2446C406.668 22.0846 407.06 23.5326 407.844 24.5886C408.644 25.6446 409.684 26.1726 410.964 26.1726ZM421.911 28.6446L428.247 14.4606H419.967V11.8446H431.415V14.0286L425.103 28.6446H421.911Z" fill="#0B315E"/>
<path d="M439.8 13C439.08 13 438.424 12.84 437.832 12.52C437.256 12.184 436.8 11.72 436.464 11.128C436.128 10.52 435.96 9.8 435.96 8.968C435.96 8.136 436.128 7.424 436.464 6.832C436.816 6.224 437.28 5.76 437.856 5.44C438.448 5.104 439.104 4.936 439.824 4.936C440.544 4.936 441.192 5.104 441.768 5.44C442.344 5.76 442.8 6.224 443.136 6.832C443.472 7.424 443.64 8.136 443.64 8.968C443.64 9.8 443.464 10.52 443.112 11.128C442.776 11.72 442.32 12.184 441.744 12.52C441.168 12.84 440.52 13 439.8 13ZM438.312 22L448.08 5.2H450.096L440.328 22H438.312ZM439.8 11.44C440.36 11.44 440.848 11.232 441.264 10.816C441.696 10.4 441.912 9.784 441.912 8.968C441.912 8.136 441.704 7.512 441.288 7.096C440.872 6.664 440.384 6.448 439.824 6.448C439.264 6.448 438.76 6.664 438.312 7.096C437.88 7.512 437.664 8.136 437.664 8.968C437.664 9.784 437.88 10.4 438.312 10.816C438.744 11.232 439.24 11.44 439.8 11.44ZM448.776 22.288C448.056 22.288 447.4 22.128 446.808 21.808C446.232 21.472 445.776 21.008 445.44 20.416C445.104 19.808 444.936 19.088 444.936 18.256C444.936 17.424 445.104 16.712 445.44 16.12C445.792 15.512 446.256 15.048 446.832 14.728C447.408 14.392 448.056 14.224 448.776 14.224C449.496 14.224 450.144 14.392 450.72 14.728C451.296 15.048 451.752 15.512 452.088 16.12C452.424 16.712 452.592 17.424 452.592 18.256C452.592 19.088 452.424 19.808 452.088 20.416C451.752 21.008 451.296 21.472 450.72 21.808C450.144 22.128 449.496 22.288 448.776 22.288ZM448.752 20.728C449.328 20.728 449.824 20.52 450.24 20.104C450.672 19.688 450.888 19.072 450.888 18.256C450.888 17.424 450.68 16.8 450.264 16.384C449.848 15.968 449.352 15.76 448.776 15.76C448.216 15.76 447.72 15.968 447.288 16.384C446.856 16.8 446.64 17.424 446.64 18.256C446.64 19.072 446.848 19.688 447.264 20.104C447.696 20.52 448.192 20.728 448.752 20.728Z" fill="#0B315E"/>
<rect x="382" y="14" width="14.3111" height="14.3111" fill="#0F1957"/>
<path d="M389.176 50.12C388.872 50.12 388.624 50.032 388.432 49.856C388.256 49.664 388.168 49.416 388.168 49.112V34.76H383.008C382.72 34.76 382.496 34.688 382.336 34.544C382.176 34.4 382.096 34.192 382.096 33.92C382.096 33.648 382.176 33.44 382.336 33.296C382.496 33.152 382.72 33.08 383.008 33.08H395.32C395.608 33.08 395.832 33.152 395.992 33.296C396.152 33.44 396.232 33.648 396.232 33.92C396.232 34.192 396.152 34.4 395.992 34.544C395.832 34.688 395.608 34.76 395.32 34.76H390.16V49.112C390.16 49.416 390.072 49.664 389.896 49.856C389.72 50.032 389.48 50.12 389.176 50.12ZM405.407 38.024C406.783 38.024 407.823 38.416 408.527 39.2C409.231 39.968 409.583 41.12 409.583 42.656V49.16C409.583 49.464 409.495 49.704 409.319 49.88C409.143 50.04 408.911 50.12 408.623 50.12C408.319 50.12 408.079 50.04 407.903 49.88C407.727 49.704 407.639 49.464 407.639 49.16V42.704C407.639 41.664 407.423 40.896 406.991 40.4C406.575 39.904 405.903 39.656 404.975 39.656C403.903 39.656 403.047 39.984 402.407 40.64C401.767 41.296 401.447 42.184 401.447 43.304V49.16C401.447 49.464 401.359 49.704 401.183 49.88C401.023 50.04 400.791 50.12 400.487 50.12C400.183 50.12 399.943 50.04 399.767 49.88C399.591 49.704 399.503 49.464 399.503 49.16V33.896C399.503 33.624 399.591 33.4 399.767 33.224C399.959 33.048 400.199 32.96 400.487 32.96C400.791 32.96 401.023 33.048 401.183 33.224C401.359 33.384 401.447 33.608 401.447 33.896V40.184C401.831 39.48 402.367 38.944 403.055 38.576C403.743 38.208 404.527 38.024 405.407 38.024ZM422.192 47.288C422.368 47.288 422.52 47.36 422.648 47.504C422.776 47.648 422.84 47.832 422.84 48.056C422.84 48.456 422.56 48.824 422 49.16C421.424 49.496 420.816 49.752 420.176 49.928C419.536 50.088 418.912 50.168 418.304 50.168C416.496 50.168 415.064 49.632 414.008 48.56C412.968 47.488 412.448 46.008 412.448 44.12C412.448 42.92 412.68 41.864 413.144 40.952C413.608 40.024 414.256 39.304 415.088 38.792C415.936 38.28 416.896 38.024 417.968 38.024C419.488 38.024 420.696 38.52 421.592 39.512C422.488 40.504 422.936 41.848 422.936 43.544C422.936 43.864 422.872 44.096 422.744 44.24C422.616 44.384 422.408 44.456 422.12 44.456H414.392C414.536 47.208 415.84 48.584 418.304 48.584C418.928 48.584 419.464 48.504 419.912 48.344C420.36 48.168 420.84 47.936 421.352 47.648C421.768 47.408 422.048 47.288 422.192 47.288ZM417.992 39.536C416.968 39.536 416.144 39.856 415.52 40.496C414.912 41.136 414.552 42.04 414.44 43.208H421.232C421.2 42.024 420.904 41.12 420.344 40.496C419.784 39.856 419 39.536 417.992 39.536ZM444.852 41.192C445.092 41.192 445.284 41.264 445.428 41.408C445.588 41.552 445.668 41.752 445.668 42.008V47.984C445.668 48.368 445.604 48.656 445.476 48.848C445.364 49.04 445.148 49.192 444.828 49.304C444.188 49.576 443.412 49.792 442.5 49.952C441.588 50.112 440.676 50.192 439.764 50.192C438.084 50.192 436.636 49.848 435.42 49.16C434.204 48.472 433.268 47.48 432.612 46.184C431.972 44.888 431.652 43.336 431.652 41.528C431.652 39.752 431.972 38.216 432.612 36.92C433.252 35.624 434.172 34.632 435.372 33.944C436.572 33.24 437.98 32.888 439.596 32.888C440.716 32.888 441.756 33.064 442.716 33.416C443.676 33.752 444.484 34.24 445.14 34.88C445.412 35.152 445.548 35.432 445.548 35.72C445.548 35.944 445.484 36.144 445.356 36.32C445.228 36.48 445.068 36.56 444.876 36.56C444.684 36.56 444.46 36.464 444.204 36.272C443.372 35.632 442.62 35.192 441.948 34.952C441.276 34.696 440.5 34.568 439.62 34.568C437.716 34.568 436.252 35.168 435.228 36.368C434.22 37.568 433.715 39.288 433.715 41.528C433.715 43.816 434.228 45.56 435.252 46.76C436.292 47.944 437.812 48.536 439.812 48.536C441.3 48.536 442.652 48.312 443.868 47.864V42.728H440.364C440.092 42.728 439.876 42.656 439.716 42.512C439.556 42.368 439.476 42.184 439.476 41.96C439.476 41.72 439.556 41.536 439.716 41.408C439.876 41.264 440.092 41.192 440.364 41.192H444.852ZM454.131 38.024C457.059 38.024 458.523 39.56 458.523 42.632V49.16C458.523 49.448 458.435 49.68 458.259 49.856C458.099 50.032 457.875 50.12 457.587 50.12C457.299 50.12 457.067 50.032 456.891 49.856C456.715 49.68 456.627 49.448 456.627 49.16V48.008C456.323 48.696 455.859 49.232 455.235 49.616C454.611 49.984 453.891 50.168 453.075 50.168C452.323 50.168 451.627 50.016 450.987 49.712C450.363 49.408 449.867 48.984 449.499 48.44C449.131 47.896 448.947 47.296 448.947 46.64C448.947 45.76 449.171 45.08 449.619 44.6C450.067 44.104 450.803 43.752 451.827 43.544C452.851 43.32 454.275 43.208 456.099 43.208H456.627V42.416C456.627 41.456 456.427 40.752 456.027 40.304C455.643 39.856 455.011 39.632 454.131 39.632C453.043 39.632 451.939 39.928 450.819 40.52C450.387 40.792 450.083 40.928 449.907 40.928C449.715 40.928 449.555 40.856 449.427 40.712C449.299 40.568 449.235 40.384 449.235 40.16C449.235 39.936 449.299 39.744 449.427 39.584C449.571 39.408 449.795 39.232 450.099 39.056C450.659 38.736 451.291 38.488 451.995 38.312C452.715 38.12 453.427 38.024 454.131 38.024ZM453.339 48.632C454.299 48.632 455.083 48.312 455.691 47.672C456.315 47.016 456.627 46.176 456.627 45.152V44.456H456.195C454.787 44.456 453.715 44.52 452.979 44.648C452.243 44.76 451.715 44.96 451.395 45.248C451.091 45.52 450.939 45.928 450.939 46.472C450.939 47.096 451.163 47.616 451.611 48.032C452.075 48.432 452.651 48.632 453.339 48.632ZM475.089 38.024C477.681 38.024 478.977 39.568 478.977 42.656V49.16C478.977 49.464 478.889 49.704 478.713 49.88C478.537 50.04 478.305 50.12 478.017 50.12C477.729 50.12 477.489 50.04 477.297 49.88C477.121 49.704 477.033 49.464 477.033 49.16V42.704C477.033 41.632 476.841 40.856 476.457 40.376C476.073 39.896 475.473 39.656 474.657 39.656C473.681 39.656 472.913 39.984 472.353 40.64C471.793 41.296 471.513 42.184 471.513 43.304V49.16C471.513 49.464 471.417 49.704 471.225 49.88C471.049 50.04 470.817 50.12 470.529 50.12C470.241 50.12 470.009 50.04 469.833 49.88C469.657 49.704 469.569 49.464 469.569 49.16V42.704C469.569 41.632 469.377 40.856 468.993 40.376C468.609 39.896 468.001 39.656 467.169 39.656C466.209 39.656 465.441 39.984 464.865 40.64C464.305 41.296 464.025 42.184 464.025 43.304V49.16C464.025 49.464 463.937 49.704 463.761 49.88C463.585 50.04 463.353 50.12 463.065 50.12C462.777 50.12 462.537 50.04 462.345 49.88C462.169 49.704 462.081 49.464 462.081 49.16V39.032C462.081 38.744 462.169 38.512 462.345 38.336C462.537 38.16 462.777 38.072 463.065 38.072C463.337 38.072 463.561 38.16 463.737 38.336C463.913 38.496 464.001 38.72 464.001 39.008V40.16C464.353 39.472 464.841 38.944 465.465 38.576C466.089 38.208 466.809 38.024 467.625 38.024C469.449 38.024 470.641 38.792 471.201 40.328C471.537 39.624 472.049 39.064 472.737 38.648C473.425 38.232 474.209 38.024 475.089 38.024ZM488.399 38.024C489.423 38.024 490.327 38.272 491.111 38.768C491.895 39.264 492.503 39.968 492.935 40.88C493.367 41.792 493.583 42.848 493.583 44.048C493.583 45.264 493.367 46.336 492.935 47.264C492.503 48.176 491.895 48.888 491.111 49.4C490.327 49.912 489.423 50.168 488.399 50.168C487.487 50.168 486.687 49.968 485.999 49.568C485.327 49.168 484.815 48.6 484.463 47.864V49.16C484.463 49.448 484.375 49.68 484.199 49.856C484.039 50.032 483.807 50.12 483.503 50.12C483.199 50.12 482.959 50.032 482.783 49.856C482.607 49.68 482.519 49.448 482.519 49.16V33.896C482.519 33.624 482.607 33.4 482.783 33.224C482.959 33.048 483.199 32.96 483.503 32.96C483.807 32.96 484.039 33.048 484.199 33.224C484.375 33.384 484.463 33.608 484.463 33.896V40.328C484.815 39.592 485.327 39.024 485.999 38.624C486.687 38.224 487.487 38.024 488.399 38.024ZM488.015 48.56C489.151 48.56 490.031 48.168 490.655 47.384C491.279 46.584 491.591 45.472 491.591 44.048C491.591 42.656 491.279 41.576 490.655 40.808C490.031 40.04 489.151 39.656 488.015 39.656C486.879 39.656 485.999 40.04 485.375 40.808C484.767 41.576 484.463 42.672 484.463 44.096C484.463 45.52 484.767 46.624 485.375 47.408C485.999 48.176 486.879 48.56 488.015 48.56ZM497.472 50.12C497.184 50.12 496.944 50.04 496.752 49.88C496.576 49.704 496.488 49.464 496.488 49.16V39.032C496.488 38.728 496.576 38.496 496.752 38.336C496.944 38.16 497.184 38.072 497.472 38.072C497.76 38.072 497.992 38.16 498.168 38.336C498.344 38.496 498.432 38.728 498.432 39.032V49.16C498.432 49.48 498.344 49.72 498.168 49.88C497.992 50.04 497.76 50.12 497.472 50.12ZM497.472 35.552C497.088 35.552 496.776 35.44 496.536 35.216C496.296 34.992 496.176 34.696 496.176 34.328C496.176 33.976 496.296 33.688 496.536 33.464C496.776 33.24 497.088 33.128 497.472 33.128C497.856 33.128 498.168 33.24 498.408 33.464C498.648 33.688 498.768 33.976 498.768 34.328C498.768 34.696 498.648 34.992 498.408 35.216C498.168 35.44 497.856 35.552 497.472 35.552ZM506.842 38.024C509.77 38.024 511.234 39.56 511.234 42.632V49.16C511.234 49.448 511.146 49.68 510.97 49.856C510.81 50.032 510.586 50.12 510.298 50.12C510.01 50.12 509.778 50.032 509.602 49.856C509.426 49.68 509.338 49.448 509.338 49.16V48.008C509.034 48.696 508.57 49.232 507.946 49.616C507.322 49.984 506.602 50.168 505.786 50.168C505.034 50.168 504.338 50.016 503.698 49.712C503.074 49.408 502.578 48.984 502.21 48.44C501.842 47.896 501.658 47.296 501.658 46.64C501.658 45.76 501.882 45.08 502.33 44.6C502.778 44.104 503.514 43.752 504.538 43.544C505.562 43.32 506.986 43.208 508.81 43.208H509.338V42.416C509.338 41.456 509.138 40.752 508.738 40.304C508.354 39.856 507.722 39.632 506.842 39.632C505.754 39.632 504.65 39.928 503.53 40.52C503.098 40.792 502.794 40.928 502.618 40.928C502.426 40.928 502.266 40.856 502.138 40.712C502.01 40.568 501.946 40.384 501.946 40.16C501.946 39.936 502.01 39.744 502.138 39.584C502.282 39.408 502.506 39.232 502.81 39.056C503.37 38.736 504.002 38.488 504.706 38.312C505.426 38.12 506.138 38.024 506.842 38.024ZM506.05 48.632C507.01 48.632 507.794 48.312 508.402 47.672C509.026 47.016 509.338 46.176 509.338 45.152V44.456H508.906C507.498 44.456 506.426 44.52 505.69 44.648C504.954 44.76 504.426 44.96 504.106 45.248C503.802 45.52 503.65 45.928 503.65 46.472C503.65 47.096 503.874 47.616 504.322 48.032C504.786 48.432 505.362 48.632 506.05 48.632Z" fill="#717E97"/>
<defs>
<filter id="filter0_d" x="362" y="68" width="225" height="393" filterUnits="userSpaceOnUse" color-interpolation-filters="sRGB">
<feFlood flood-opacity="0" result="BackgroundImageFix"/>
<feColorMatrix in="SourceAlpha" type="matrix" values="0 0 0 0 0 0 0 0 0 0 0 0 0 0 0 0 0 0 127 0"/>
<feOffset dx="5" dy="20"/>
<feGaussianBlur stdDeviation="12.5"/>
<feColorMatrix type="matrix" values="0 0 0 0 0 0 0 0 0 0.768627 0 0 0 0 0.8 0 0 0 0.25 0"/>
<feBlend mode="normal" in2="BackgroundImageFix" result="effect1_dropShadow"/>
<feBlend mode="normal" in="SourceGraphic" in2="effect1_dropShadow" result="shape"/>
</filter>
<filter id="filter1_d" x="166" y="275" width="273" height="202" filterUnits="userSpaceOnUse" color-interpolation-filters="sRGB">
<feFlood flood-opacity="0" result="BackgroundImageFix"/>
<feColorMatrix in="SourceAlpha" type="matrix" values="0 0 0 0 0 0 0 0 0 0 0 0 0 0 0 0 0 0 127 0"/>
<feOffset dx="5" dy="20"/>
<feGaussianBlur stdDeviation="12.5"/>
<feColorMatrix type="matrix" values="0 0 0 0 0 0 0 0 0 0.596078 0 0 0 0 0.737255 0 0 0 0.25 0"/>
<feBlend mode="normal" in2="BackgroundImageFix" result="effect1_dropShadow"/>
<feBlend mode="normal" in="SourceGraphic" in2="effect1_dropShadow" result="shape"/>
</filter>
<filter id="filter2_d" x="130" y="145" width="153" height="204" filterUnits="userSpaceOnUse" color-interpolation-filters="sRGB">
<feFlood flood-opacity="0" result="BackgroundImageFix"/>
<feColorMatrix in="SourceAlpha" type="matrix" values="0 0 0 0 0 0 0 0 0 0 0 0 0 0 0 0 0 0 127 0"/>
<feOffset dx="5" dy="20"/>
<feGaussianBlur stdDeviation="12.5"/>
<feColorMatrix type="matrix" values="0 0 0 0 0 0 0 0 0 0.423529 0 0 0 0 0.639216 0 0 0 0.25 0"/>
<feBlend mode="normal" in2="BackgroundImageFix" result="effect1_dropShadow"/>
<feBlend mode="normal" in="SourceGraphic" in2="effect1_dropShadow" result="shape"/>
</filter>
<filter id="filter3_d" x="193" y="83.0001" width="164" height="164" filterUnits="userSpaceOnUse" color-interpolation-filters="sRGB">
<feFlood flood-opacity="0" result="BackgroundImageFix"/>
<feColorMatrix in="SourceAlpha" type="matrix" values="0 0 0 0 0 0 0 0 0 0 0 0 0 0 0 0 0 0 127 0"/>
<feOffset dx="5" dy="20"/>
<feGaussianBlur stdDeviation="12.5"/>
<feColorMatrix type="matrix" values="0 0 0 0 0 0 0 0 0 0.258824 0 0 0 0 0.505882 0 0 0 0.25 0"/>
<feBlend mode="normal" in2="BackgroundImageFix" result="effect1_dropShadow"/>
<feBlend mode="normal" in="SourceGraphic" in2="effect1_dropShadow" result="shape"/>
</filter>
<filter id="filter4_d" x="270" y="23" width="124" height="145" filterUnits="userSpaceOnUse" color-interpolation-filters="sRGB">
<feFlood flood-opacity="0" result="BackgroundImageFix"/>
<feColorMatrix in="SourceAlpha" type="matrix" values="0 0 0 0 0 0 0 0 0 0 0 0 0 0 0 0 0 0 127 0"/>
<feOffset dx="5" dy="20"/>
<feGaussianBlur stdDeviation="12.5"/>
<feColorMatrix type="matrix" values="0 0 0 0 0.0588235 0 0 0 0 0.0980392 0 0 0 0 0.341176 0 0 0 0.25 0"/>
<feBlend mode="normal" in2="BackgroundImageFix" result="effect1_dropShadow"/>
<feBlend mode="normal" in="SourceGraphic" in2="effect1_dropShadow" result="shape"/>
</filter>
</defs>
</svg>
