<svg width="24" height="24" viewBox="0 0 24 24" fill="none" xmlns="http://www.w3.org/2000/svg">
<path d="M10.524 21.0101C13.0155 21.0121 15.4258 20.1236 17.32 18.505L22.7664 24L23.9139 22.8687L18.4674 17.3576C20.0313 15.5404 20.9266 13.2429 21.0046 10.8466C21.0825 8.4504 20.3385 6.09958 18.896 4.18457C17.4535 2.26956 15.3994 0.905574 13.0747 0.319127C10.75 -0.26732 8.29465 -0.0409463 6.11639 0.960657C3.93812 1.96226 2.168 3.67883 1.09996 5.8253C0.0319258 7.97178 -0.269756 10.419 0.245012 12.7606C0.759781 15.1022 2.06003 17.1973 3.92983 18.6979C5.79963 20.1985 8.12649 21.0144 10.524 21.0101ZM10.524 1.61615C12.2821 1.61615 14.0006 2.13748 15.4624 3.1142C16.9242 4.09093 18.0635 5.47918 18.7363 7.10341C19.409 8.72765 19.5851 10.5149 19.2421 12.2392C18.8991 13.9635 18.0525 15.5473 16.8094 16.7904C15.5663 18.0336 13.9824 18.8802 12.2581 19.2231C10.5339 19.5661 8.7466 19.3901 7.12236 18.7173C5.49813 18.0445 4.10988 16.9052 3.13315 15.4434C2.15643 13.9817 1.6351 12.2631 1.6351 10.505C1.6351 8.14756 2.57161 5.88664 4.2386 4.21965C5.90559 2.55266 8.16651 1.61615 10.524 1.61615Z" fill="white"/>
</svg>
